<svg width="11" height="6" viewBox="0 0 11 6" fill="none" xmlns="http://www.w3.org/2000/svg">
<path id="Vector" d="M5.9832 5.49822C5.81639 5.49845 5.65477 5.44027 5.52639 5.33376L1.24492 1.76174C1.09919 1.64048 1.00761 1.4663 0.990309 1.27751C0.973012 1.08872 1.03142 0.900793 1.15268 0.755068C1.27394 0.609343 1.44813 0.517758 1.63691 0.50046C1.8257 0.483162 2.01363 0.541569 2.15936 0.662831L5.98413 3.86335L9.81248 0.781408C9.88554 0.722147 9.96959 0.677909 10.0598 0.651237C10.15 0.624566 10.2446 0.615985 10.3381 0.62599C10.4317 0.635995 10.5223 0.664386 10.6048 0.709534C10.6874 0.754682 10.7602 0.815695 10.819 0.889067C10.8844 0.96251 10.9338 1.04866 10.9643 1.14211C10.9948 1.23556 11.0057 1.3343 10.9963 1.43214C10.9868 1.52999 10.9573 1.62483 10.9095 1.71073C10.8617 1.79663 10.7967 1.87173 10.7185 1.93133L6.43304 5.37711C6.30085 5.46664 6.14247 5.50929 5.9832 5.49822Z" fill="#6B7385"/>
</svg>
