<svg width="17" height="16" viewBox="0 0 17 16" fill="none" xmlns="http://www.w3.org/2000/svg">
<g id="Icons/Feather/globe" clip-path="url(#clip0_638_250)">
<path id="Vector (Stroke)" fill-rule="evenodd" clip-rule="evenodd" d="M8.96972 1.99984C5.65601 1.99984 2.96972 4.68613 2.96972 7.99984C2.96972 11.3135 5.65601 13.9998 8.96972 13.9998C12.2834 13.9998 14.9697 11.3135 14.9697 7.99984C14.9697 4.68613 12.2834 1.99984 8.96972 1.99984ZM1.63638 7.99984C1.63638 3.94975 4.91963 0.666504 8.96972 0.666504C13.0198 0.666504 16.303 3.94975 16.303 7.99984C16.303 12.0499 13.0198 15.3332 8.96972 15.3332C4.91963 15.3332 1.63638 12.0499 1.63638 7.99984Z" fill="#6B7385"/>
<path id="Vector (Stroke)_2" fill-rule="evenodd" clip-rule="evenodd" d="M1.63638 8.00016C1.63638 7.63197 1.93486 7.3335 2.30305 7.3335H15.6364C16.0046 7.3335 16.303 7.63197 16.303 8.00016C16.303 8.36835 16.0046 8.66683 15.6364 8.66683H2.30305C1.93486 8.66683 1.63638 8.36835 1.63638 8.00016Z" fill="#6B7385"/>
<path id="Vector (Stroke)_3" fill-rule="evenodd" clip-rule="evenodd" d="M6.96987 8.00007C7.01556 10.05 7.72055 12.0235 8.96971 13.6329C10.2189 12.0235 10.9239 10.05 10.9696 8.00007C10.9239 5.95018 10.2189 3.97663 8.96972 2.36727C7.72055 3.97663 7.01556 5.95018 6.96987 8.00007ZM8.96972 1.3334L8.47749 0.883789C6.70098 2.82868 5.69139 5.35264 5.63653 7.98619C5.63633 7.99544 5.63633 8.0047 5.63653 8.01396C5.69139 10.6475 6.70098 13.1715 8.47749 15.1164C8.60379 15.2546 8.78244 15.3334 8.96972 15.3334C9.157 15.3334 9.33564 15.2546 9.46195 15.1164C11.2385 13.1715 12.248 10.6475 12.3029 8.01396C12.3031 8.0047 12.3031 7.99544 12.3029 7.98619C12.248 5.35264 11.2385 2.82868 9.46195 0.883789L8.96972 1.3334Z" fill="#6B7385"/>
</g>
<defs>
<clipPath id="clip0_638_250">
<rect width="16" height="16" fill="white" transform="translate(0.969727)"/>
</clipPath>
</defs>
</svg>
