<svg width="11" height="6" viewBox="0 0 11 6" fill="none" xmlns="http://www.w3.org/2000/svg">
<path id="Vector" d="M5.29653 5.87722C5.12972 5.87754 4.96806 5.81945 4.83962 5.71302L0.556122 2.14343C0.410328 2.02225 0.318644 1.84812 0.301239 1.65934C0.283834 1.47056 0.342133 1.2826 0.463313 1.13681C0.584492 0.991016 0.758624 0.899332 0.947403 0.881927C1.13618 0.864522 1.32414 0.922822 1.46994 1.044L5.29653 4.24235L9.12312 1.15823C9.19615 1.09893 9.28017 1.05464 9.37037 1.02792C9.46056 1.00119 9.55515 0.99256 9.64869 1.00251C9.74224 1.01246 9.83289 1.0408 9.91545 1.0859C9.998 1.131 10.0708 1.19198 10.1297 1.26532C10.1951 1.33872 10.2446 1.42484 10.2752 1.51827C10.3057 1.6117 10.3167 1.71044 10.3073 1.80829C10.2979 1.90614 10.2684 2.001 10.2207 2.08693C10.1729 2.17285 10.1079 2.24799 10.0298 2.30763L5.7463 5.75585C5.61416 5.84546 5.4558 5.88819 5.29653 5.87722Z" fill="#6B7385"/>
</svg>
