<svg width="11" height="6" viewBox="0 0 11 6" fill="none" xmlns="http://www.w3.org/2000/svg">
<path id="Vector" d="M5.48972 5.43816C5.32291 5.43839 5.16128 5.38021 5.0329 5.2737L0.751433 1.70169C0.605708 1.58042 0.514123 1.40624 0.496825 1.21745C0.479527 1.02866 0.537934 0.840734 0.659196 0.695009C0.780458 0.549284 0.954642 0.457699 1.14343 0.440402C1.33222 0.423104 1.52015 0.48151 1.66587 0.602772L5.49065 3.80329L9.31899 0.721349C9.39205 0.662088 9.4761 0.617851 9.56631 0.591179C9.65652 0.564507 9.75112 0.555927 9.84465 0.565931C9.93819 0.575936 10.0288 0.604328 10.1114 0.649475C10.1939 0.694623 10.2667 0.755637 10.3256 0.829008C10.3909 0.902452 10.4404 0.988597 10.4709 1.08205C10.5014 1.1755 10.5122 1.27424 10.5028 1.37209C10.4933 1.46993 10.4638 1.56477 10.416 1.65067C10.3682 1.73657 10.3032 1.81167 10.225 1.87127L5.93955 5.31705C5.80737 5.40659 5.64899 5.44923 5.48972 5.43816Z" fill="white"/>
</svg>
