<svg width="17" height="16" viewBox="0 0 17 16" fill="none" xmlns="http://www.w3.org/2000/svg">
<g id="u:search">
<path id="Vector" d="M14.9605 13.5266L12.4871 11.0733C13.4472 9.87621 13.9121 8.3568 13.7863 6.82747C13.6605 5.29814 12.9536 3.87512 11.8108 2.85103C10.668 1.82694 9.17632 1.27961 7.6424 1.32158C6.10848 1.36356 4.64893 1.99164 3.56388 3.0767C2.47883 4.16175 1.85074 5.62129 1.80877 7.15522C1.76679 8.68914 2.31412 10.1808 3.33821 11.3236C4.36231 12.4664 5.78532 13.1733 7.31465 13.2991C8.84398 13.4249 10.3634 12.96 11.5605 11.9999L14.0138 14.4533C14.0758 14.5158 14.1495 14.5654 14.2307 14.5992C14.312 14.633 14.3991 14.6505 14.4871 14.6505C14.5751 14.6505 14.6623 14.633 14.7435 14.5992C14.8247 14.5654 14.8985 14.5158 14.9605 14.4533C15.0806 14.329 15.1478 14.1628 15.1478 13.9899C15.1478 13.817 15.0806 13.6509 14.9605 13.5266ZM7.82045 11.9999C6.89747 11.9999 5.99522 11.7262 5.22779 11.2135C4.46036 10.7007 3.86222 9.97185 3.50901 9.11913C3.15581 8.2664 3.06339 7.32809 3.24345 6.42285C3.42352 5.5176 3.86798 4.68608 4.52062 4.03344C5.17327 3.38079 6.00479 2.93634 6.91003 2.75627C7.81528 2.57621 8.75359 2.66862 9.60631 3.02183C10.459 3.37504 11.1879 3.97318 11.7006 4.74061C12.2134 5.50804 12.4871 6.41029 12.4871 7.33327C12.4871 8.57095 11.9955 9.75793 11.1203 10.6331C10.2451 11.5083 9.05813 11.9999 7.82045 11.9999Z" fill="#EAEDF0"/>
</g>
</svg>
