<svg width="16" height="16" viewBox="0 0 16 16" fill="none" xmlns="http://www.w3.org/2000/svg">
<g id="Icons/Feather/calendar">
<path id="Vector (Stroke)" fill-rule="evenodd" clip-rule="evenodd" d="M3.33333 3.33333C2.96514 3.33333 2.66666 3.63181 2.66666 4V13.3333C2.66666 13.7015 2.96514 14 3.33333 14H12.6667C13.0349 14 13.3333 13.7015 13.3333 13.3333V4C13.3333 3.63181 13.0349 3.33333 12.6667 3.33333H3.33333ZM1.33333 4C1.33333 2.89543 2.22876 2 3.33333 2H12.6667C13.7712 2 14.6667 2.89543 14.6667 4V13.3333C14.6667 14.4379 13.7712 15.3333 12.6667 15.3333H3.33333C2.22876 15.3333 1.33333 14.4379 1.33333 13.3333V4Z" fill="#A0A0A0"/>
<path id="Vector (Stroke)_2" fill-rule="evenodd" clip-rule="evenodd" d="M10.6667 0.666504C11.0349 0.666504 11.3333 0.964981 11.3333 1.33317V3.99984C11.3333 4.36803 11.0349 4.6665 10.6667 4.6665C10.2985 4.6665 10 4.36803 10 3.99984V1.33317C10 0.964981 10.2985 0.666504 10.6667 0.666504Z" fill="#A0A0A0"/>
<path id="Vector (Stroke)_3" fill-rule="evenodd" clip-rule="evenodd" d="M5.33334 0.666504C5.70153 0.666504 6.00001 0.964981 6.00001 1.33317V3.99984C6.00001 4.36803 5.70153 4.6665 5.33334 4.6665C4.96515 4.6665 4.66667 4.36803 4.66667 3.99984V1.33317C4.66667 0.964981 4.96515 0.666504 5.33334 0.666504Z" fill="#A0A0A0"/>
<path id="Vector (Stroke)_4" fill-rule="evenodd" clip-rule="evenodd" d="M1.33333 6.66667C1.33333 6.29848 1.63181 6 1.99999 6H14C14.3682 6 14.6667 6.29848 14.6667 6.66667C14.6667 7.03486 14.3682 7.33333 14 7.33333H1.99999C1.63181 7.33333 1.33333 7.03486 1.33333 6.66667Z" fill="#A0A0A0"/>
</g>
</svg>
