<svg width="16" height="16" viewBox="0 0 16 16" fill="none" xmlns="http://www.w3.org/2000/svg">
<g id="u:heart-sign">
<path id="Vector" d="M13.44 3.33315C12.7291 2.62962 11.7902 2.20333 10.7927 2.13121C9.79514 2.05908 8.80467 2.34587 8 2.93982C7.15177 2.30891 6.09599 2.02282 5.04528 2.13918C3.99456 2.25553 3.02696 2.76567 2.33731 3.56687C1.64767 4.36808 1.28721 5.40083 1.32853 6.45716C1.36985 7.51349 1.80987 8.51493 2.56 9.25982L6.56 13.2931C6.935 13.6677 7.44333 13.8781 7.97333 13.8781C8.50333 13.8781 9.01166 13.6677 9.38666 13.2931L13.3867 9.25982C13.7806 8.87492 14.0946 8.41595 14.3106 7.90931C14.5266 7.40266 14.6404 6.85832 14.6453 6.30757C14.6503 5.75682 14.5464 5.21052 14.3395 4.70007C14.1327 4.18962 13.827 3.72508 13.44 3.33315ZM12.5 8.30648L8.5 12.3065C8.43802 12.369 8.36429 12.4186 8.28305 12.4524C8.20181 12.4863 8.11467 12.5037 8.02666 12.5037C7.93865 12.5037 7.85152 12.4863 7.77028 12.4524C7.68904 12.4186 7.6153 12.369 7.55333 12.3065L3.55333 8.30648C3.0305 7.77205 2.73774 7.05413 2.73774 6.30648C2.73774 5.55884 3.0305 4.84092 3.55333 4.30648C4.0861 3.78048 4.80464 3.48553 5.55333 3.48553C6.30201 3.48553 7.02056 3.78048 7.55333 4.30648C7.6153 4.36897 7.68904 4.41857 7.77028 4.45241C7.85152 4.48626 7.93865 4.50368 8.02666 4.50368C8.11467 4.50368 8.20181 4.48626 8.28305 4.45241C8.36429 4.41857 8.43802 4.36897 8.5 4.30648C9.04717 3.87108 9.73547 3.6523 10.4336 3.69188C11.1318 3.73146 11.7909 4.02662 12.2854 4.52109C12.7799 5.01555 13.075 5.67471 13.1146 6.37286C13.1542 7.07101 12.9354 7.75931 12.5 8.30648Z" fill="#192335"/>
</g>
</svg>
