<svg width="16" height="16" viewBox="0 0 16 16" fill="none" xmlns="http://www.w3.org/2000/svg">
<g id="u:heart-sign">
<path id="Vector" d="M13.44 3.33315C12.7291 2.62962 11.7902 2.20333 10.7927 2.13121C9.79513 2.05908 8.80466 2.34587 7.99998 2.93982C7.15175 2.30891 6.09597 2.02282 5.04526 2.13918C3.99455 2.25553 3.02694 2.76567 2.3373 3.56687C1.64765 4.36808 1.2872 5.40083 1.32851 6.45716C1.36983 7.51349 1.80986 8.51493 2.55998 9.25982L6.55998 13.2931C6.93498 13.6677 7.44331 13.8781 7.97331 13.8781C8.50331 13.8781 9.01165 13.6677 9.38665 13.2931L13.3866 9.25982C13.7806 8.87492 14.0946 8.41595 14.3106 7.90931C14.5266 7.40266 14.6404 6.85832 14.6453 6.30757C14.6503 5.75682 14.5463 5.21052 14.3395 4.70007C14.1326 4.18962 13.8269 3.72508 13.44 3.33315ZM12.5 8.30648L8.49998 12.3065C8.438 12.369 8.36427 12.4186 8.28303 12.4524C8.20179 12.4863 8.11465 12.5037 8.02665 12.5037C7.93864 12.5037 7.8515 12.4863 7.77026 12.4524C7.68902 12.4186 7.61529 12.369 7.55331 12.3065L3.55331 8.30648C3.03049 7.77205 2.73772 7.05413 2.73772 6.30648C2.73772 5.55884 3.03049 4.84092 3.55331 4.30648C4.08608 3.78048 4.80463 3.48553 5.55331 3.48553C6.302 3.48553 7.02054 3.78048 7.55331 4.30648C7.61529 4.36897 7.68902 4.41857 7.77026 4.45241C7.8515 4.48626 7.93864 4.50368 8.02665 4.50368C8.11465 4.50368 8.20179 4.48626 8.28303 4.45241C8.36427 4.41857 8.438 4.36897 8.49998 4.30648C9.04716 3.87108 9.73545 3.6523 10.4336 3.69188C11.1318 3.73146 11.7909 4.02662 12.2854 4.52109C12.7798 5.01555 13.075 5.67471 13.1146 6.37286C13.1542 7.07101 12.9354 7.75931 12.5 8.30648Z" fill="white"/>
</g>
</svg>
